:SAMPLES-PER-SECOND 30
:FULLY-SPECIFIED
:DEGREES
97
root  4.23998 19.461 -0.889305 -12.2366 85.0822 -63.4636
RightUpLeg  -53.5209 1.15166 2.99873
RightLeg  112.929 9.16939 5.13786
RightFoot  -6.39907 0.560652 -9.49176
RightToes  1.86264e-009 -3.18055e-015 8.94531e-016
Spine  50.5098 -3.13443 3.50825
Spine1  -16.2898 -1.63484 1.18095
HEad  -62.0723 6.92106 0.118537
LeftShoulder1  0 -2.69403e-036 -1.28585e-037
LeftArm  -5.57159 -60.6924 -71.4751
LeftForeArm  6.33154 -3.99871 6.68632
LeftHand  -1.60461 1.09376 29.2738
RightShoulder  -2.48481e-017 0 -8.08114e-019
RightArm  -0.123975 20.525 95.7234
RightForeArm  36.1898 7.52996 1.76344
RightHand  10.301 -22.2736 -50.45
LeftUpLeg  -40.2356 -9.53531 -0.715836
LeftLeg  92.9147 -11.9171 -19.1646
LeftFoot  15.0321 0.485667 -1.73659
LeftToes  -3.27418e-010 -1.10613e-010 -1.08532e-012
98
root  4.89388 19.3504 -1.09464 -40.585 86.7845 -90.1591
RightUpLeg  -59.2455 -1.10132 3.54234
RightLeg  119.741 8.15622 5.84248
RightFoot  -10.2331 0.253956 -9.78826
RightToes  1.86264e-009 -3.18055e-015 8.94531e-016
Spine  51.4198 -3.7058 5.07059
Spine1  -15.7261 -1.54235 2.55964
HEad  -61.9507 5.62081 -0.216768
LeftShoulder1  0 -2.69403e-036 -1.28585e-037
LeftArm  -3.0852 -59.4681 -76.807
LeftForeArm  6.91285 -4.22038 6.78424
LeftHand  -1.8669 0.80518 31.3554
RightShoulder  -2.48481e-017 0 -8.08114e-019
RightArm  2.51333 18.6112 92.7131
RightForeArm  33.2222 9.14273 1.19186
RightHand  10.3404 -22.3271 -50.4804
LeftUpLeg  -36.7086 -12.3053 -0.72566
LeftLeg  91.0995 -12.4621 -19.2635
LeftFoot  15.4341 0.529046 -1.87554
LeftToes  -3.27418e-010 -1.10613e-010 -1.08532e-012
99
root  5.544 19.2142 -1.2538 -96.2762 87.1217 -143.975
RightUpLeg  -64.3776 -3.95939 3.97224
RightLeg  124.78 7.60706 5.80079
RightFoot  -12.7944 0.0304264 -10.0409
RightToes  1.86264e-009 -3.18055e-015 8.94531e-016
Spine  52.1959 -4.48492 6.42791
Spine1  -15.1848 -1.7732 4.52935
HEad  -61.3755 4.38329 -0.740391
LeftShoulder1  0 -2.69403e-036 -1.28585e-037
LeftArm  -1.70163 -57.7767 -82.124
LeftForeArm  8.59052 -4.53542 7.26778
LeftHand  -2.13324 0.548757 33.5298
RightShoulder  -2.48481e-017 0 -8.08114e-019
RightArm  3.57922 16.38 89.9739
RightForeArm  31.4129 10.0314 0.654248
RightHand  10.4659 -22.4649 -50.6827
LeftUpLeg  -32.9355 -15.4473 -0.941771
LeftLeg  89.2585 -12.9997 -18.9041
LeftFoot  16.0054 0.567101 -1.97511
LeftToes  -3.27418e-010 -1.10613e-010 -1.08532e-012
100
root  6.20433 19.0481 -1.35661 -138.469 85.1338 175.635
RightUpLeg  -68.4736 -6.54275 4.35129
RightLeg  127.991 7.73814 5.14008
RightFoot  -12.2336 0.0958012 -11.1248
RightToes  1.86264e-009 -3.18055e-015 8.94531e-016
Spine  52.5386 -4.88314 7.36241
Spine1  -14.536 -1.81699 6.91889
HEad  -60.5699 2.85437 -1.22571
LeftShoulder1  0 -2.69403e-036 -1.28585e-037
LeftArm  0.229033 -56.1488 -87.3344
LeftForeArm  9.93964 -4.39786 7.09479
LeftHand  -2.32408 0.398462 35.1737
RightShoulder  -2.48481e-017 0 -8.08114e-019
RightArm  4.41355 14.0169 87.0828
RightForeArm  30.1871 10.6888 0.29897
RightHand  10.3924 -22.4232 -50.4405
LeftUpLeg  -29.1174 -18.2779 -1.16377
LeftLeg  87.3797 -13.4954 -18.1499
LeftFoot  16.3676 0.650315 -2.25882
LeftToes  -3.27418e-010 -1.10613e-010 -1.08532e-012
101
root  6.87854 18.8619 -1.40213 -148.633 82.5813 166.81
RightUpLeg  -71.1363 -8.2782 4.82483
RightLeg  129.907 7.99021 4.58586
RightFoot  -8.09929 0.549101 -12.1637
RightToes  1.86264e-009 -3.18055e-015 8.94531e-016
Spine  52.4312 -4.58684 7.98832
Spine1  -14.0549 -1.29531 9.41189
HEad  -59.709 1.03825 -1.65089
LeftShoulder1  0 -2.69403e-036 -1.28585e-037
LeftArm  3.59978 -54.4971 -92.8299
LeftForeArm  10.659 -3.64094 6.12038
LeftHand  -2.50268 0.260781 36.6365
RightShoulder  -2.48481e-017 0 -8.08114e-019
RightArm  10.3067 10.9978 83.7339
RightForeArm  24.175 13.1469 -1.52065
RightHand  9.883 -22.0089 -49.0946
LeftUpLeg  -25.6647 -20.351 -1.05687
LeftLeg  85.3995 -13.9503 -17.2086
LeftFoot  16.4927 0.737927 -2.57561
LeftToes  -3.27418e-010 -1.10613e-010 -1.08532e-012
102
root  7.57888 18.6757 -1.41022 -149.111 80.4217 166.945
RightUpLeg  -72.317 -9.23279 5.56559
RightLeg  130.872 7.46137 5.05199
RightFoot  -2.25785 1.05276 -11.1423
RightToes  1.86264e-009 -3.18055e-015 8.94531e-016
Spine  51.9098 -4.2171 8.85859
Spine1  -13.932 -0.550129 11.0885
HEad  -58.8476 -0.524714 -1.87764
LeftShoulder1  0 -2.69403e-036 -1.28585e-037
LeftArm  6.43089 -52.1905 -97.4292
LeftForeArm  11.8073 -3.41907 5.27576
LeftHand  -2.71363 0.0858584 38.2019
RightShoulder  -2.48481e-017 0 -8.08114e-019
RightArm  25.0554 6.31754 80.9374
RightForeArm  7.26963 17.153 -9.08648
RightHand  9.07263 -21.3247 -46.8421
LeftUpLeg  -23.0002 -21.634 -0.203356
LeftLeg  83.3001 -14.3696 -16.2398
LeftFoot  16.6257 0.752544 -2.61661
LeftToes  -3.27418e-010 -1.10613e-010 -1.08532e-012
103
root  8.339 18.4959 -1.38707 -145.739 78.4399 170.213
RightUpLeg  -72.1211 -9.70896 6.43713
RightLeg  130.656 5.93533 6.78727
RightFoot  2.99128 1.13669 -8.09222
RightToes  1.86264e-009 -3.18055e-015 8.94531e-016
Spine  50.9379 -4.46473 10.0714
Spine1  -13.9193 -0.315902 11.8056
HEad  -58.221 -1.36309 -1.67034
LeftShoulder1  0 -2.69403e-036 -1.28585e-037
LeftArm  6.56773 -49.214 -99.2769
LeftForeArm  13.8685 -4.70157 5.0692
LeftHand  -2.89039 -0.0501652 39.5181
RightShoulder  -2.48481e-017 0 -8.08114e-019
RightArm  34.4114 0.541892 79.6004
RightForeArm  -6.90823 20.7033 -19.7942
RightHand  8.2464 -20.5903 -44.3844
LeftUpLeg  -21.1874 -22.471 1.50809
LeftLeg  81.0444 -14.7604 -15.2789
LeftFoot  16.8552 0.702834 -2.40955
LeftToes  -3.27418e-010 -1.10613e-010 -1.08532e-012
104
root  9.15917 18.3164 -1.30837 -141.94 76.5814 173.362
RightUpLeg  -70.7458 -9.62236 7.09525
RightLeg  129.238 3.83139 9.5425
RightFoot  6.6641 0.992186 -5.67119
RightToes  1.86264e-009 -3.18055e-015 8.94531e-016
Spine  49.6642 -4.93842 10.9012
Spine1  -13.8406 -0.633087 12.7337
HEad  -58.0711 -1.71859 -1.04325
LeftShoulder1  0 -2.69403e-036 -1.28585e-037
LeftArm  4.85153 -46.1005 -98.8506
LeftForeArm  16.063 -6.87677 5.01101
LeftHand  -3.00311 -0.112117 40.4764
RightShoulder  -2.48481e-017 0 -8.08114e-019
RightArm  28.1283 -4.03538 78.8609
RightForeArm  -5.81234 26.3063 -26.9333
RightHand  7.5611 -19.9373 -42.2369
LeftUpLeg  -19.9033 -23.1374 3.64311
LeftLeg  78.448 -15.1462 -14.2783
LeftFoot  17.0903 0.675387 -2.28605
LeftToes  -3.27418e-010 -1.10613e-010 -1.08532e-012
